<svg xmlns="http://www.w3.org/2000/svg" width="1200" height="630" viewBox="0 0 1200 630" fill="none">
  <defs>
    <linearGradient id="bg" x1="0" y1="0" x2="1200" y2="630" gradientUnits="userSpaceOnUse">
      <stop stop-color="#1e3a8a"/>
      <stop offset="0.45" stop-color="#1e40af"/>
      <stop offset="1" stop-color="#2563eb"/>
    </linearGradient>
    <linearGradient id="glow" x1="700" y1="80" x2="1100" y2="520" gradientUnits="userSpaceOnUse">
      <stop stop-color="#60a5fa" stop-opacity="0.35"/>
      <stop offset="1" stop-color="#60a5fa" stop-opacity="0"/>
    </linearGradient>
    <filter id="shadow" x="-20%" y="-20%" width="140%" height="140%">
      <feDropShadow dx="0" dy="12" stdDeviation="18" flood-color="#0f172a" flood-opacity="0.28"/>
    </filter>
  </defs>
  <rect width="1200" height="630" fill="url(#bg)"/>
  <circle cx="980" cy="120" r="220" fill="url(#glow)"/>
  <circle cx="180" cy="520" r="160" fill="#ffffff" fill-opacity="0.06"/>
  <circle cx="1040" cy="500" r="120" fill="#ffffff" fill-opacity="0.05"/>

  <g filter="url(#shadow)" transform="translate(96 118)">
    <rect width="132" height="132" rx="30" fill="#ffffff" fill-opacity="0.12"/>
    <rect x="18" y="18" width="96" height="96" rx="22" fill="#ffffff" fill-opacity="0.16"/>
    <g transform="translate(66 66)">
      <path d="M-24 -5c0-9 7-16 16-16 5 0 9 2 12 5l5-5 7 7-5 5c3 3 5 7 5 12 0 9-7 16-16 16s-16-7-16-16z" fill="#ffffff"/>
      <path d="M9 9l14 14-5 5-14-14 5-5z" fill="#ffffff"/>
      <rect x="-30" y="21" width="60" height="9" rx="4.5" fill="#ffffff" fill-opacity="0.85"/>
    </g>
    <circle cx="104" cy="28" r="18" fill="#fbbf24"/>
    <text x="104" y="34" text-anchor="middle" font-family="Arial, Helvetica, sans-serif" font-size="12" font-weight="700" fill="#1e3a8a">365</text>
  </g>

  <text x="270" y="205" font-family="Arial, Helvetica, sans-serif" font-size="78" font-weight="700" fill="#ffffff">Majstor 365</text>
  <text x="270" y="275" font-family="Arial, Helvetica, sans-serif" font-size="34" fill="#dbeafe">Prona&#273;ite pouzdanog majstora za svaki posao</text>
  <text x="270" y="330" font-family="Arial, Helvetica, sans-serif" font-size="24" fill="#bfdbfe">Platforma za povezivanje klijenata, majstora i izvo&#273;a&#269;a</text>

  <g transform="translate(270 390)">
    <rect width="250" height="54" rx="27" fill="#ffffff"/>
    <text x="125" y="35" text-anchor="middle" font-family="Arial, Helvetica, sans-serif" font-size="22" font-weight="700" fill="#1e40af">majstor365.com</text>
  </g>

  <g fill="#ffffff" fill-opacity="0.18">
    <rect x="760" y="170" width="320" height="72" rx="20"/>
    <rect x="790" y="194" width="180" height="12" rx="6" fill="#ffffff" fill-opacity="0.55"/>
    <rect x="790" y="216" width="120" height="10" rx="5" fill="#ffffff" fill-opacity="0.35"/>
    <rect x="760" y="270" width="280" height="72" rx="20"/>
    <rect x="790" y="294" width="150" height="12" rx="6" fill="#ffffff" fill-opacity="0.55"/>
    <rect x="790" y="316" width="100" height="10" rx="5" fill="#ffffff" fill-opacity="0.35"/>
    <rect x="800" y="370" width="300" height="72" rx="20"/>
    <rect x="830" y="394" width="170" height="12" rx="6" fill="#ffffff" fill-opacity="0.55"/>
    <rect x="830" y="416" width="110" height="10" rx="5" fill="#ffffff" fill-opacity="0.35"/>
  </g>
</svg>
